<svg width="733" height="507" viewBox="0 0 733 507" fill="none" xmlns="http://www.w3.org/2000/svg">
<path opacity="0.5" d="M560.101 71.5448L572.356 60.3989C578.078 55.1947 586.819 55.1946 592.541 60.3989L594.703 62.3655C600.425 67.5698 609.166 67.5698 614.888 62.3655L627.143 51.2196" stroke="#4E887A" stroke-width="13" stroke-linecap="round"/>
<path opacity="0.5" d="M631.554 81.3009L643.809 70.155C649.531 64.9508 658.272 64.9507 663.994 70.155L666.156 72.1216C671.879 77.3259 680.62 77.3259 686.342 72.1216L698.597 60.9757" stroke="#4E887A" stroke-width="13" stroke-linecap="round"/>
<path opacity="0.5" d="M7 490.244L19.2549 479.098C24.977 473.894 33.7181 473.894 39.4401 479.098L41.6024 481.065C47.3245 486.269 56.0656 486.269 61.7876 481.065L74.0425 469.919" stroke="#4E887A" stroke-width="13" stroke-linecap="round"/>
<path opacity="0.5" d="M78.4532 500L90.7081 488.854C96.4302 483.65 105.171 483.65 110.893 488.854L113.056 490.821C118.778 496.025 127.519 496.025 133.241 490.821L145.496 479.675" stroke="#4E887A" stroke-width="13" stroke-linecap="round"/>
<ellipse opacity="0.5" cx="695.509" cy="445.122" rx="18.0838" ry="16.6667" fill="#4E887A"/>
<ellipse opacity="0.5" cx="689.334" cy="484.959" rx="11.9089" ry="10.9756" fill="#4E887A"/>
<ellipse opacity="0.5" cx="723.297" cy="467.48" rx="9.70352" ry="8.94309" fill="#4E887A"/>
<ellipse opacity="0.5" cx="140.644" cy="12.6016" rx="13.6731" ry="12.6016" fill="#4E887A"/>
<ellipse opacity="0.5" cx="136.233" cy="42.6829" rx="9.26245" ry="8.53658" fill="#4E887A"/>
<ellipse opacity="0.5" cx="161.815" cy="29.6747" rx="7.49818" ry="6.91057" fill="#4E887A"/>
</svg>
